<svg version="1.0" xmlns="http://www.w3.org/2000/svg" width="346.667" height="346.667" viewBox="0 0 260 260"><path d="M122.7 6.6c-.1.1-1.6.5-3.2.8-1.7.2-3 .5-3 .6 0 .1-.8.3-1.8.5-3 .6-10.8 4.5-14.6 7.3-8.5 6.3-14.9 15.5-18.1 25.9-1.9 6.2-2.1 8.7-1.6 19.5.3 6.7.9 13.9 1.3 15.8.4 1.9.7 10 .7 18 0 22.5-2.7 29.8-15.6 41.5-7.1 6.4-14.6 11.1-33.2 21.1-8.8 4.7-14.6 8.6-18.1 12-5 4.9-11.3 14.5-12 18.2-.2.9-.4 1.8-.5 1.9-.2.2-.4.7-.5 1.3-.1.5-.4 1.1-.5 1.2-1.1 1.1-2.3 16.5-1.5 18.5.4 1 .9 2.7 1.1 3.8.9 5.7 1.7 8.5 2.4 8.5.4 0 1.1 1.2 1.4 2.7 1.7 6.3 13.5 19.1 21.3 22.8 2.1 1 3.8 1.6 3.9 1.4 0-.2.7.1 1.5.7 1.3 1.1 4 1.9 9.9 3.2 3.1.7 12.8.7 15.5 0 1.1-.3 3.7-.8 5.8-1.3 2-.4 4-1.1 4.3-1.6.3-.5 1.2-.9 2-.9 2.3 0 11.5-6.2 16-10.9 4.5-4.6 9.3-12.8 11.9-20.6 2-6 2.1-19.3.1-32-1.9-12.3-1.4-23.5 1.4-31.5 2.7-8.1 4.8-10.9 11-15.5 13.9-10.2 32-8.8 44 3.4 5.5 5.6 7.9 10.5 9.5 20.1 1.1 6.2.5 18.5-1.4 28.4-.5 2.6-.8 8.9-.7 13.9.3 14.9 4.7 25.1 15.4 35.5 3.5 3.4 6.8 5.9 7.3 5.6.5-.3.9-.1.9.4s1.9 1.7 4.3 2.7c2.3.9 5 2.1 6 2.7 1.1.5 2.1.7 2.4.4.3-.2 1.7 0 3.2.6 3.3 1.4 16.1 1.8 16.1.6 0-.5.9-.7 1.9-.3 1.1.3 2.2.1 2.5-.4.4-.6 1.3-.8 2-.5.8.3 1.7 0 2.1-.5.3-.6 1.1-.9 1.6-.6.5.4.9.1.9-.5s.4-.9.8-.6c1.5.9 12.6-6.5 17.6-11.7 8.9-9.5 13.4-21.6 13.1-35.2-.3-13.8-6-26.4-16-35.2-3-2.7-11.9-8.3-20.2-12.7-8.1-4.3-17.7-9.9-21.3-12.4-7.6-5.3-17.4-15-19.5-19.5-5.2-11.2-6.2-28.1-3.1-53.2 2.2-18.2 1.3-26.3-4.4-37.6-5.4-10.6-19.8-22.6-29.2-24.3-1.3-.3-2.3-.5-2.3-.7 0-.7-20.1-2-20.8-1.3z"/></svg>