<?xml version="1.0" encoding="utf-8"?>
<!-- Generator: Adobe Illustrator 25.2.1, SVG Export Plug-In . SVG Version: 6.00 Build 0)  -->
<svg version="1.1" id="Calque_1" xmlns="http://www.w3.org/2000/svg" xmlns:xlink="http://www.w3.org/1999/xlink" x="0px" y="0px"
	 viewBox="0 0 488 495.9" style="enable-background:new 0 0 488 495.9;" xml:space="preserve">
<style type="text/css">
	.st0{opacity:0.3;fill:none;stroke:#46414D;enable-background:new    ;}
	.st1{fill:#E5E5E5;}
	.st2{fill:none;stroke:#BFBFBF;stroke-width:15;}
	.st3{fill:none;stroke:url(#SVGID_1_);stroke-width:15;}
</style>
<line class="st0" x1="242.7" y1="0" x2="242.7" y2="473"/>
<line class="st0" x1="466.1" y1="105.2" x2="19.2" y2="367.8"/>
<line class="st0" x1="3.8" y1="112.2" x2="481.5" y2="360.8"/>
<circle class="st1" cx="241.5" cy="259.5" r="143.5"/>
<circle class="st2" cx="244.4" cy="258.5" r="223"/>
<linearGradient id="SVGID_1_" gradientUnits="userSpaceOnUse" x1="52.5778" y1="185.6071" x2="435.9387" y2="329.8141" gradientTransform="matrix(1 0 0 -1 0 507.8898)">
	<stop  offset="0" style="stop-color:#FF2300"/>
	<stop  offset="1" style="stop-color:#FF7200"/>
</linearGradient>
<path class="st3" d="M447.5,167.5c-16.2-37.2-42-67.9-75-91.5c-33-23.6-71.6-36.8-112-39.9c-40.4-3.2-80.9,4.8-117.1,22.9
	c-36.2,18.2-66.2,47.3-87.9,81.5c-21.6,34.3-33.1,71.9-34,112.5s8.9,80.3,29,115.5c20.1,35.2,47.1,63.2,82.5,83s67,29,110.5,30"/>
</svg>
