<svg width="14" height="35" viewBox="0 0 14 35" fill="none" xmlns="http://www.w3.org/2000/svg">
<path d="M8.7 11.9856C9.46667 11.9856 10.1 12.2374 10.6 12.741C11.1 13.211 11.35 13.9161 11.35 14.8561C11.35 15.2254 11.2833 15.8801 11.15 16.8201C11.0167 17.7266 10.9167 18.3141 10.85 18.5827L9 28.1511C8.93333 28.3525 8.9 28.7386 8.9 29.3094C8.9 30.1151 9.06667 30.518 9.4 30.518C9.86667 30.518 10.5167 30.1655 11.35 29.4604C12.2167 28.7554 12.7833 28.2182 13.05 27.8489C13.15 27.8489 13.3333 28.0168 13.6 28.3525C13.8667 28.6882 14 28.9233 14 29.0576C13.6333 29.964 12.4333 31.1894 10.4 32.7338C8.4 34.2446 6.7 35 5.3 35C4.56667 35 3.93333 34.765 3.4 34.295C2.9 33.7914 2.65 33.0695 2.65 32.1295C2.65 31.7602 2.71667 31.1223 2.85 30.2158C2.98333 29.2758 3.08333 28.6715 3.15 28.4029L5 18.8345C5.06667 18.4988 5.1 18.1127 5.1 17.6763C5.1 16.8705 4.93333 16.4676 4.6 16.4676C4.13333 16.4676 3.46667 16.8201 2.6 17.5252C1.76667 18.2302 1.21667 18.7674 0.95 19.1367C0.883333 19.1367 0.7 18.9688 0.4 18.6331C0.133333 18.2974 0 18.0623 0 17.9281C0.366667 17.0216 1.55 15.813 3.55 14.3022C5.58333 12.7578 7.3 11.9856 8.7 11.9856ZM10.3 0C11.1333 0 11.8167 0.302158 12.35 0.906475C12.9167 1.51079 13.2 2.2494 13.2 3.1223C13.2 4.23022 12.8 5.22062 12 6.09353C11.2333 6.96643 10.3333 7.40288 9.3 7.40288C8.46667 7.40288 7.76667 7.10072 7.2 6.4964C6.66667 5.89209 6.4 5.13669 6.4 4.23022C6.4 3.1223 6.78333 2.14868 7.55 1.30935C8.35 0.436451 9.26667 0 10.3 0Z" fill="url(#paint0_linear)"/>
<defs>
<linearGradient id="paint0_linear" x1="2.88116" y1="-97.7084" x2="15.7632" y2="-97.4608" gradientUnits="userSpaceOnUse">
<stop stop-color="#FF2300"/>
<stop offset="1" stop-color="#FF7200"/>
</linearGradient>
</defs>
</svg>
