<svg width="37" height="37" viewbox="0 0 37 37" fill="none" xmlns="http://www.w3.org/2000/svg">
    <path d="M12 9.8C12 10.304 12.1598 10.736 12.5023 11.072C12.8447 11.408 13.2329 11.6 13.7123 11.6C14.1918 11.6 14.6027 11.432 14.9224 11.072C15.242 10.712 15.4247 10.304 15.4247 9.8C15.4247 9.296 15.2648 8.864 14.9224 8.528C14.5799 8.192 14.1918 8 13.7123 8C13.2329 8 12.8219 8.168 12.5023 8.528C12.1826 8.888 12 9.296 12 9.8ZM22.3881 12.8C22.2283 12.8 22.0685 12.824 21.9087 12.848C21.7489 12.872 21.6119 12.92 21.4521 12.968C21.2922 13.016 21.2009 13.064 21.0868 13.088C20.9954 13.136 20.8813 13.184 20.7215 13.28C20.5845 13.376 20.4932 13.424 20.4475 13.448C20.4018 13.472 20.3333 13.544 20.1735 13.664C20.0137 13.784 19.9909 13.856 19.9909 13.856V12.8H16.6119V26H19.9909V17.528C19.9909 17.456 20.0137 17.312 20.0822 17.12C20.1507 16.928 20.2192 16.76 20.3333 16.616C20.4475 16.472 20.6073 16.352 20.8584 16.232C21.1096 16.112 21.4064 16.04 21.726 16.04C22.2968 16.04 22.7078 16.184 22.9817 16.496C23.2557 16.808 23.3927 17.192 23.3927 17.696V26H27V17.816C27 16.952 26.863 16.184 26.6119 15.536C26.3607 14.888 26.0411 14.408 25.6986 14.072C25.3562 13.736 24.9452 13.448 24.4886 13.256C24.032 13.04 23.6438 12.92 23.3014 12.872C23.0046 12.824 22.6849 12.8 22.3881 12.8V12.8ZM12.0457 26H15.4247V12.8H12.0457V26Z" fill="currentColor" />
    <circle cx="18.5" cy="18.5" r="18" stroke="currentColor" />
</svg>